<?xml version="1.0" encoding="iso-8859-1"?>
<!-- Generator: Adobe Illustrator 15.0.0, SVG Export Plug-In . SVG Version: 6.00 Build 0)  -->
<!DOCTYPE svg PUBLIC "-//W3C//DTD SVG 1.1//EN" "http://www.w3.org/Graphics/SVG/1.1/DTD/svg11.dtd">
<svg version="1.1" id="Layer_1" xmlns="http://www.w3.org/2000/svg" xmlns:xlink="http://www.w3.org/1999/xlink" x="0px" y="0px"
	 width="520px" height="665px" viewBox="0 0 520 665" style="enable-background:new 0 0 520 665;" xml:space="preserve">
<rect x="97.57" y="30.288" transform="matrix(0.7071 -0.7071 0.7071 0.7071 -23.126 150.9846)" style="opacity:0.7529;fill:#5B5F61;" width="146.241" height="146.24"/>
<rect x="98.838" y="30.288" transform="matrix(0.7071 -0.7071 0.7071 0.7071 -22.7547 151.8809)" style="fill:none;stroke:#000000;stroke-linecap:round;stroke-miterlimit:10;" width="146.241" height="146.24"/>
<rect x="49.371" style="opacity:0.7529;fill:#99AAAA;" width="198.11" height="198.11"/>
<rect x="50.639" style="fill:none;stroke:#000000;stroke-linecap:round;stroke-miterlimit:10;" width="198.11" height="198.11"/>
<rect x="146.677" y="35.563" transform="matrix(0.7071 0.7071 -0.7071 0.7071 153.9631 -128.8628)" style="opacity:0.7529;fill:#767C7D;" width="171.712" height="171.712"/>
<rect x="147.944" y="35.562" transform="matrix(0.7071 0.7071 -0.7071 0.7071 154.3341 -129.7586)" style="fill:none;stroke:#000000;stroke-linecap:round;stroke-miterlimit:10;" width="171.712" height="171.712"/>
<rect x="37.087" style="opacity:0.7529;fill:#CEDBE0;" width="159.694" height="159.694"/>
<rect x="38.354" style="fill:none;stroke:#000000;stroke-linecap:round;stroke-miterlimit:10;" width="159.694" height="159.694"/>
<rect x="25.388" style="opacity:0.7529;fill:#5B5F61;" width="148.579" height="148.579"/>
<rect x="26.655" style="fill:none;stroke:#000000;stroke-linecap:round;stroke-miterlimit:10;" width="148.579" height="148.579"/>
<rect x="93.061" style="opacity:0.7529;fill:#CEDBE0;" width="235.54" height="235.541"/>
<rect x="94.328" style="fill:none;stroke:#000000;stroke-linecap:round;stroke-miterlimit:10;" width="235.541" height="235.541"/>
<rect x="84.486" y="29.27" transform="matrix(0.7071 0.7071 -0.7071 0.7071 116.1081 -80.4377)" style="opacity:0.7529;fill:#BECFD1;" width="141.33" height="141.33"/>
<rect x="85.753" y="29.27" transform="matrix(0.7071 0.7071 -0.7071 0.7071 116.479 -81.3341)" style="fill:none;stroke:#000000;stroke-linecap:round;stroke-miterlimit:10;" width="141.33" height="141.33"/>
<polygon style="opacity:0.7529;fill:#BECFD1;" points="315.919,0 86.662,0 86.662,229.257 315.926,229.257 "/>
<polygon style="fill:none;stroke:#000000;stroke-linecap:round;stroke-miterlimit:10;" points="317.187,0 87.929,0 87.929,229.257 
	317.193,229.257 "/>
<rect x="119.716" style="opacity:0.7529;fill:#CEDBE0;" width="251.98" height="251.98"/>
<rect x="120.983" style="fill:none;stroke:#000000;stroke-linecap:round;stroke-miterlimit:10;" width="251.98" height="251.98"/>
<rect x="110.075" y="31.839" transform="matrix(-0.7071 -0.7071 0.7071 -0.7071 242.2633 317.7586)" style="opacity:0.7529;fill:#99AAAA;" width="153.732" height="153.732"/>
<rect x="111.344" y="31.839" transform="matrix(-0.7071 -0.7071 0.7071 -0.7071 244.4267 318.6553)" style="fill:none;stroke:#000000;stroke-linecap:round;stroke-miterlimit:10;" width="153.731" height="153.732"/>
<rect x="30.005" style="opacity:0.7529;fill:#767C7D;" width="152.833" height="152.833"/>
<rect x="31.273" style="fill:none;stroke:#000000;stroke-linecap:round;stroke-miterlimit:10;" width="152.834" height="152.833"/>
<rect x="87.133" y="29.468" transform="matrix(-0.7071 0.7071 -0.7071 -0.7071 341.3378 59.8369)" style="opacity:0.7529;fill:#99AAAA;" width="142.287" height="142.287"/>
<rect x="88.402" y="29.468" transform="matrix(-0.7071 0.7071 -0.7071 -0.7071 343.5032 58.939)" style="fill:none;stroke:#000000;stroke-linecap:round;stroke-miterlimit:10;" width="142.286" height="142.286"/>
<rect x="23.176" style="opacity:0.7529;fill:#767C7D;" width="148.255" height="148.255"/>
<rect x="24.444" style="fill:none;stroke:#000000;stroke-linecap:round;stroke-miterlimit:10;" width="148.255" height="148.255"/>
<rect x="153.645" y="36.759" transform="matrix(0.7071 0.7071 -0.7071 0.7071 159.739 -134.6361)" style="opacity:0.7529;fill:#BECFD1;" width="177.489" height="177.489"/>
<rect x="154.912" y="36.759" transform="matrix(0.7071 0.7071 -0.7071 0.7071 160.1096 -135.5321)" style="fill:none;stroke:#000000;stroke-linecap:round;stroke-miterlimit:10;" width="177.49" height="177.489"/>
<rect x="37.255" style="opacity:0.7529;fill:#BECFD1;" width="163.328" height="163.329"/>
<rect x="38.523" style="fill:none;stroke:#000000;stroke-linecap:round;stroke-miterlimit:10;" width="163.329" height="163.329"/>
<rect x="197.251" y="42.761" transform="matrix(0.7071 -0.7071 0.7071 0.7071 -15.2232 255.2353)" style="opacity:0.7529;fill:#99AAAA;" width="206.467" height="206.466"/>
<rect x="198.519" y="42.761" transform="matrix(0.7071 -0.7071 0.7071 0.7071 -14.8518 256.132)" style="fill:none;stroke:#000000;stroke-linecap:round;stroke-miterlimit:10;" width="206.467" height="206.466"/>
<rect x="35.416" y="0.004" transform="matrix(-4.415115e-05 -1 1 -4.415115e-05 35.4178 190.447)" style="opacity:0.7529;fill:#CEDBE0;" width="155.024" height="155.023"/>
<rect x="36.685" y="0.003" transform="matrix(-4.415115e-05 -1 1 -4.415115e-05 36.6862 191.7153)" style="fill:none;stroke:#000000;stroke-linecap:round;stroke-miterlimit:10;" width="155.024" height="155.024"/>
<rect x="107.884" y="31.563" transform="matrix(-0.7071 -0.7071 0.7071 -0.7071 238.0498 314.1259)" style="opacity:0.7529;fill:#99AAAA;" width="152.397" height="152.397"/>
<rect x="109.151" y="31.562" transform="matrix(-0.7071 -0.7071 0.7071 -0.7071 240.2133 315.0221)" style="fill:none;stroke:#000000;stroke-linecap:round;stroke-miterlimit:10;" width="152.397" height="152.398"/>
<rect x="19.178" style="opacity:0.7529;fill:#CEDBE0;" width="142.113" height="142.113"/>
<rect x="20.446" style="fill:none;stroke:#000000;stroke-linecap:round;stroke-miterlimit:10;" width="142.113" height="142.113"/>
<rect x="158.335" y="37.042" transform="matrix(0.7071 0.7071 -0.7071 0.7071 161.9957 -138.1526)" style="opacity:0.7529;fill:#CEDBE0;" width="178.853" height="178.854"/>
<rect x="159.602" y="37.042" transform="matrix(0.7071 0.7071 -0.7071 0.7071 162.3659 -139.0485)" style="fill:none;stroke:#000000;stroke-linecap:round;stroke-miterlimit:10;" width="178.854" height="178.854"/>
<rect x="101.938" y="31.278" transform="matrix(0.7071 -0.7071 0.7071 0.7071 -23.5374 156.7537)" style="opacity:0.7529;fill:#BECFD1;" width="151.023" height="151.023"/>
<rect x="103.206" y="31.278" transform="matrix(0.7071 -0.7071 0.7071 0.7071 -23.1662 157.65)" style="fill:none;stroke:#000000;stroke-linecap:round;stroke-miterlimit:10;" width="151.023" height="151.023"/>
<rect x="44.868" style="opacity:0.7529;fill:#767C7D;" width="186.136" height="186.136"/>
<rect x="46.136" style="fill:none;stroke:#000000;stroke-linecap:round;stroke-miterlimit:10;" width="186.136" height="186.136"/>
<rect x="92.664" y="30.043" transform="matrix(-0.7071 -0.7071 0.7071 -0.7071 209.4717 291.9063)" style="opacity:0.7529;fill:#767C7D;" width="145.055" height="145.055"/>
<rect x="93.931" y="30.043" transform="matrix(-0.7071 -0.7071 0.7071 -0.7071 211.6351 292.8025)" style="fill:none;stroke:#000000;stroke-linecap:round;stroke-miterlimit:10;" width="145.055" height="145.055"/>
<rect x="88.64" style="opacity:0.7529;fill:#BECFD1;" width="229.821" height="229.82"/>
<rect x="89.908" style="fill:none;stroke:#000000;stroke-linecap:round;stroke-miterlimit:10;" width="229.821" height="229.82"/>
<rect x="21.276" style="opacity:0.7529;fill:#CEDBE0;" width="146.353" height="146.354"/>
<rect x="22.543" style="fill:none;stroke:#000000;stroke-linecap:round;stroke-miterlimit:10;" width="146.353" height="146.354"/>
<rect x="82.011" y="29.26" transform="matrix(0.7071 -0.7071 0.7071 0.7071 -25.9298 137.2006)" style="opacity:0.7529;fill:#5B5F61;" width="141.28" height="141.28"/>
<rect x="83.279" y="29.26" transform="matrix(0.7071 -0.7071 0.7071 0.7071 -25.5584 138.0973)" style="fill:none;stroke:#000000;stroke-linecap:round;stroke-miterlimit:10;" width="141.28" height="141.28"/>
<rect x="106.453" style="opacity:0.7529;fill:#767C7D;" width="242.428" height="242.429"/>
<rect x="107.72" style="fill:none;stroke:#000000;stroke-linecap:round;stroke-miterlimit:10;" width="242.428" height="242.429"/>
<rect x="173.156" y="39.066" transform="matrix(0.7071 0.7071 -0.7071 0.7071 172.654 -150.0637)" style="opacity:0.7529;fill:#99AAAA;" width="188.626" height="188.627"/>
<rect x="174.424" y="39.066" transform="matrix(0.7071 0.7071 -0.7071 0.7071 173.0245 -150.9602)" style="fill:none;stroke:#000000;stroke-linecap:round;stroke-miterlimit:10;" width="188.626" height="188.626"/>
<rect x="115.803" style="opacity:0.7529;fill:#BECFD1;" width="245.753" height="245.753"/>
<rect x="117.069" style="fill:none;stroke:#000000;stroke-linecap:round;stroke-miterlimit:10;" width="245.754" height="245.753"/>
<rect x="28.358" style="opacity:0.7529;fill:#BECFD1;" width="151.946" height="151.946"/>
<rect x="29.625" style="fill:none;stroke:#000000;stroke-linecap:round;stroke-miterlimit:10;" width="151.946" height="151.946"/>
<rect x="186.554" y="41.116" transform="matrix(-0.7071 -0.7071 0.7071 -0.7071 388.6585 441.7474)" style="opacity:0.7529;fill:#767C7D;" width="198.528" height="198.527"/>
<rect x="187.822" y="41.116" transform="matrix(-0.7071 -0.7071 0.7071 -0.7071 390.8223 442.644)" style="fill:none;stroke:#000000;stroke-linecap:round;stroke-miterlimit:10;" width="198.527" height="198.527"/>
<rect x="35.074" style="opacity:0.7529;fill:#99AAAA;" width="157.904" height="157.904"/>
<rect x="36.342" style="fill:none;stroke:#000000;stroke-linecap:round;stroke-miterlimit:10;" width="157.905" height="157.904"/>
<rect x="26.795" style="opacity:0.7529;fill:#BECFD1;" width="150.974" height="150.974"/>
<rect x="28.063" style="fill:none;stroke:#000000;stroke-linecap:round;stroke-miterlimit:10;" width="150.974" height="150.974"/>
<rect x="149.115" y="35.579" transform="matrix(0.7071 0.7071 -0.7071 0.7071 154.729 -130.5986)" style="opacity:0.7529;fill:#BECFD1;" width="171.792" height="171.791"/>
<rect x="150.383" y="35.579" transform="matrix(0.7071 0.7071 -0.7071 0.7071 155.1007 -131.4951)" style="fill:none;stroke:#000000;stroke-linecap:round;stroke-miterlimit:10;" width="171.791" height="171.792"/>
<rect x="73.308" style="opacity:0.7529;fill:#99AAAA;" width="214.733" height="214.733"/>
<rect x="74.576" style="fill:none;stroke:#000000;stroke-linecap:round;stroke-miterlimit:10;" width="214.733" height="214.733"/>
<rect x="183.29" y="40.372" transform="matrix(0.7071 -0.7071 0.7071 0.7071 -15.2345 238.8959)" style="opacity:0.7529;fill:#767C7D;" width="194.932" height="194.932"/>
<rect x="184.557" y="40.372" transform="matrix(0.7071 -0.7071 0.7071 0.7071 -14.8633 239.7919)" style="fill:none;stroke:#000000;stroke-linecap:round;stroke-miterlimit:10;" width="194.932" height="194.932"/>
<rect x="42.617" style="opacity:0.7529;fill:#99AAAA;" width="178.247" height="178.247"/>
<rect x="43.884" style="fill:none;stroke:#000000;stroke-linecap:round;stroke-miterlimit:10;" width="178.247" height="178.247"/>
<rect x="135.663" y="34.843" transform="matrix(-0.7071 -0.7071 0.7071 -0.7071 291.0715 358.4866)" style="opacity:0.7529;fill:#767C7D;" width="168.235" height="168.235"/>
<rect x="136.931" y="34.843" transform="matrix(-0.7071 -0.7071 0.7071 -0.7071 293.2359 359.3828)" style="fill:none;stroke:#000000;stroke-linecap:round;stroke-miterlimit:10;" width="168.235" height="168.235"/>
<rect x="69.69" style="opacity:0.7529;fill:#767C7D;" width="210.746" height="210.746"/>
<rect x="70.958" style="fill:none;stroke:#000000;stroke-linecap:round;stroke-miterlimit:10;" width="210.747" height="210.746"/>
<rect x="103.565" style="opacity:0.7529;fill:#CEDBE0;" width="241.513" height="241.513"/>
<rect x="104.833" style="fill:none;stroke:#000000;stroke-linecap:round;stroke-miterlimit:10;" width="241.514" height="241.513"/>
<rect x="166.499" y="38.251" transform="matrix(0.7071 0.7071 -0.7071 0.7071 168.1606 -144.78)" style="opacity:0.7529;fill:#CEDBE0;" width="184.691" height="184.692"/>
<rect x="167.766" y="38.251" transform="matrix(0.7071 0.7071 -0.7071 0.7071 168.5298 -145.6758)" style="fill:none;stroke:#000000;stroke-linecap:round;stroke-miterlimit:10;" width="184.692" height="184.691"/>
<ellipse style="opacity:0.7529;fill:#BECFD1;" cx="295.887" cy="56.307" rx="144.254" ry="56.307"/>
<path style="opacity:0.7529;fill:#5B5F61;" d="M9.059,63.506c0,35.07,16.201,63.506,36.19,63.506
	c19.99-0.007,36.19-28.436,36.19-63.506S65.239,0,45.249,0C25.259,0.007,9.059,28.436,9.059,63.506z"/>
<ellipse style="opacity:0.7529;fill:#767C7D;" cx="240.84" cy="118.432" rx="124.518" ry="118.432"/>
<path style="opacity:0.7529;fill:#CEDBE0;" d="M45.248,20.504c0,11.326,42.438,20.504,94.779,20.504s94.779-9.185,94.779-20.504
	C234.806,9.178,192.368,0,140.027,0S45.248,9.185,45.248,20.504z"/>
<path style="opacity:0.7529;fill:#99AAAA;" d="M136.457,74.973c0,41.402,59.751,74.973,133.462,74.973
	c73.712,0,133.464-33.571,133.464-74.973S343.632,0,269.919,0C196.208,0,136.457,33.57,136.457,74.973z"/>
<path style="opacity:0.7529;fill:#CEDBE0;" d="M47.23,105.19c0,58.096,43.974,105.19,98.224,105.19
	c54.25,0,98.224-47.094,98.224-105.19S199.705,0,145.455,0C91.205,0,47.23,47.094,47.23,105.19z"/>
<path style="opacity:0.7529;fill:#99AAAA;" d="M38.885,121.222c0,66.95,39.6,121.221,88.454,121.221
	c48.855,0,88.455-54.271,88.455-121.221C215.793,54.271,176.194,0,127.339,0C78.484,0,38.885,54.271,38.885,121.222z"/>
<path style="opacity:0.7529;fill:#BECFD1;" d="M102.326,42.741c0,23.61,54.06,42.741,120.742,42.741s120.742-19.138,120.742-42.741
	C343.811,19.13,289.75,0,223.068,0S102.326,19.138,102.326,42.741z"/>
<path style="opacity:0.7529;fill:#99AAAA;" d="M155.362,48.256c0,26.653,65.732,48.256,146.826,48.256
	c81.093,0,146.824-21.609,146.824-48.256C449.013,21.603,383.281,0,302.188,0C221.094,0,155.362,21.609,155.362,48.256z"/>
<ellipse style="opacity:0.7529;fill:#767C7D;" cx="297.196" cy="108.332" rx="145.48" ry="108.331"/>
<path style="opacity:0.7529;fill:#BECFD1;" d="M124.349,14.7c0,8.122,56.786,14.7,126.842,14.7s126.842-6.578,126.842-14.7
	c0-8.121-56.786-14.7-126.842-14.7S124.349,6.579,124.349,14.7z"/>
<ellipse style="opacity:0.7529;fill:#BECFD1;" cx="51.719" cy="128.962" rx="41.128" ry="128.962"/>
<ellipse style="opacity:0.7529;fill:#767C7D;" cx="21.136" cy="41.79" rx="19.743" ry="41.79"/>
<ellipse style="opacity:0.7529;fill:#CEDBE0;" cx="200.093" cy="126.758" rx="114.565" ry="126.758"/>
<path style="opacity:0.7529;fill:#CEDBE0;" d="M72.492,69.605c0,38.444,47.968,69.605,107.141,69.605
	c59.174,0,107.141-31.168,107.141-69.605C286.773,31.161,238.807,0,179.633,0C120.459,0,72.492,31.168,72.492,69.605z"/>
<path style="opacity:0.7529;fill:#CEDBE0;" d="M13.691,116.22c0,64.189,27.646,116.221,61.759,116.221
	c34.113,0,61.759-52.032,61.759-116.221C137.209,52.032,109.563,0,75.45,0C41.338,0,13.691,52.032,13.691,116.22z"/>
<path style="opacity:0.7529;fill:#5B5F61;" d="M34.793,138.119c0,76.283,34.563,138.119,77.191,138.119
	c42.635,0,77.191-61.836,77.191-138.119S154.613,0,111.985,0C69.35,0,34.793,61.836,34.793,138.119z"/>
<ellipse style="opacity:0.7529;fill:#5B5F61;" cx="32.254" cy="158.179" rx="23.835" ry="158.18"/>
<path style="opacity:0.7529;fill:#99AAAA;" d="M60.51,59.435c0,32.823,45.256,59.434,101.09,59.434
	c55.835,0,101.09-26.611,101.09-59.434C262.691,26.611,217.436,0,161.601,0C105.766,0,60.51,26.611,60.51,59.435z"/>
<ellipse style="opacity:0.7529;fill:#5B5F61;" cx="59.869" cy="105.753" rx="54.525" ry="105.753"/>
<path style="opacity:0.7529;fill:#99AAAA;" d="M115.085,53.292c0,29.436,54.891,53.292,122.602,53.292
	c67.71,0,122.602-23.857,122.602-53.292S305.396,0,237.687,0C169.976,0,115.085,23.857,115.085,53.292z"/>
<ellipse style="opacity:0.7529;fill:#99AAAA;" cx="329.126" cy="90.885" rx="157.912" ry="90.884"/>
<path style="opacity:0.7529;fill:#BECFD1;" d="M46.358,25.843c0,14.271,43.889,25.844,98.026,25.844
	c54.138,0,98.027-11.573,98.027-25.844C242.411,11.573,198.522,0,144.384,0C90.247,0,46.358,11.573,46.358,25.843z"/>
<ellipse style="opacity:0.7529;fill:#CEDBE0;" cx="190.645" cy="15.334" rx="108.803" ry="15.334"/>
<ellipse style="opacity:0.7529;fill:#5B5F61;" cx="272.849" cy="38.444" rx="134.336" ry="38.444"/>
<ellipse style="opacity:0.7529;fill:#BECFD1;" cx="139.034" cy="115.255" rx="94.505" ry="115.255"/>
<path style="opacity:0.7529;fill:#767C7D;" d="M18.35,44.305c0,24.469,30.577,44.305,68.302,44.305s68.302-19.835,68.302-44.305
	C154.954,19.835,124.377,0,86.652,0S18.35,19.835,18.35,44.305z"/>
<ellipse style="opacity:0.7529;fill:#767C7D;" cx="134.078" cy="102.295" rx="90.588" ry="102.295"/>
<path style="opacity:0.7529;fill:#BECFD1;" d="M39.355,42.628c0,23.546,35.81,42.627,79.98,42.627s79.98-19.081,79.98-42.627
	c0-23.547-35.81-42.628-79.98-42.628S39.355,19.081,39.355,42.628z"/>
<path style="opacity:0.7529;fill:#BECFD1;" d="M125.615,40.797c0,22.532,57.639,40.804,128.745,40.797
	c71.106,0,128.744-18.265,128.744-40.797S325.466-0.007,254.36,0C183.254,0,125.615,18.265,125.615,40.797z"/>
<path style="opacity:0.7529;fill:#CEDBE0;" d="M69,44.072c0,24.342,46.763,44.072,104.451,44.072
	c57.688,0,104.451-19.73,104.451-44.072C277.901,19.729,231.138,0,173.451,0C115.763,0,69,19.729,69,44.072z"/>
<path style="opacity:0.7529;fill:#BECFD1;" d="M101.946,120.418c0,66.506,53.863,120.418,120.299,120.418
	c66.442,0,120.299-53.912,120.299-120.418S288.68,0,222.245,0C155.802,0,101.946,53.912,101.946,120.418z"/>
<ellipse style="opacity:0.7529;fill:#CEDBE0;" cx="49.712" cy="148.022" rx="40.6" ry="148.023"/>
<ellipse style="opacity:0.7529;fill:#767C7D;" cx="121.678" cy="88.905" rx="86.51" ry="88.905"/>
<path style="opacity:0.7529;fill:#CEDBE0;" d="M8.718,32c0,17.672,17.701,32,39.529,32c21.829,0,39.529-14.327,39.529-32
	S70.076,0,48.247,0C26.419,0,8.718,14.327,8.718,32z"/>
<path style="opacity:0.7529;fill:#99AAAA;" d="M75.392,114.227c0,63.083,48.171,114.227,107.592,114.227
	c59.42,0,107.592-51.145,107.592-114.227C290.576,51.144,242.405,0,182.984,0C123.563,0,75.392,51.144,75.392,114.227z"/>
<path style="opacity:0.7529;fill:#5B5F61;" d="M4.956,16.813c0,9.291,9.177,16.813,20.497,16.813
	c11.318,0,20.497-7.522,20.497-16.813C45.949,7.522,36.771,0,25.453,0C14.133,0,4.956,7.522,4.956,16.813z"/>
<path style="opacity:0.7529;fill:#767C7D;" d="M2.237,61.893c0,34.183,8.931,61.893,19.955,61.893s19.955-27.71,19.955-61.893
	S33.215,0,22.192,0S2.237,27.71,2.237,61.893z"/>
<ellipse style="opacity:0.7529;fill:#767C7D;" cx="45.643" cy="71.958" rx="37.064" ry="71.958"/>
<path style="opacity:0.7529;fill:#99AAAA;" d="M36.111,140.873c0,77.805,39.085,140.874,87.307,140.874
	c48.221,0,87.307-63.069,87.307-140.874C210.725,63.069,171.639,0,123.418,0C75.197,0,36.111,63.069,36.111,140.873z"/>
<ellipse style="opacity:0.7529;fill:#BECFD1;" cx="20.657" cy="86.919" rx="18.955" ry="86.919"/>
<ellipse style="opacity:0.7529;fill:#767C7D;" cx="65.121" cy="140.803" rx="58.145" ry="140.804"/>
<ellipse style="opacity:0.7529;fill:#767C7D;" cx="241.228" cy="114.861" rx="125.398" ry="114.861"/>
<path style="opacity:0.7529;fill:#BECFD1;" d="M147.451,111.614c0,61.646,63.816,111.614,142.542,111.614
	c78.727,0,142.543-49.968,142.543-111.614S368.72,0,289.993,0C211.267,0,147.451,49.968,147.451,111.614z"/>
<ellipse style="opacity:0.7529;fill:#CEDBE0;" cx="92.741" cy="42.509" rx="72.352" ry="42.508"/>
<path style="opacity:0.7529;fill:#767C7D;" d="M2.536,98.949c0,54.645,6.882,98.95,15.37,98.95s15.369-44.305,15.369-98.95
	C33.274,44.305,26.393,0,17.905,0S2.536,44.305,2.536,98.949z"/>
<ellipse style="opacity:0.7529;fill:#99AAAA;" cx="311.995" cy="41.473" rx="152.228" ry="41.473"/>
<ellipse style="opacity:0.7529;fill:#5B5F61;" cx="274.116" cy="41.537" rx="134.337" ry="41.536"/>
<path style="opacity:0.7529;fill:#CEDBE0;" d="M43.108,52.687c0,29.097,40.924,52.687,91.413,52.687
	c50.49,0,91.413-23.59,91.413-52.687C225.934,23.589,185.011,0,134.521,0C84.032,0,43.108,23.589,43.108,52.687z"/>
<path style="opacity:0.7529;fill:#CEDBE0;" d="M39.42,151.453c0,83.644,39.769,151.452,88.82,151.452
	c49.053,0,88.821-67.809,88.821-151.452C217.062,67.81,177.293,0,128.24,0C79.189,0,39.42,67.81,39.42,151.453z"/>
<path style="opacity:0.7529;fill:#BECFD1;" d="M9.873,134.442c0,74.255,17.722,134.442,39.585,134.442
	c21.864,0,39.585-60.188,39.585-134.442C89.044,60.188,71.322,0,49.458,0C27.595,0,9.873,60.188,9.873,134.442z"/>
<path style="opacity:0.7529;fill:#5B5F61;" d="M1.928,105.07c0,58.032,7.868,105.07,17.574,105.07s17.574-47.038,17.574-105.07
	C37.077,47.038,29.209,0,19.502,0S1.928,47.038,1.928,105.07z"/>
<ellipse style="opacity:0.7529;fill:#99AAAA;" cx="136.07" cy="151.552" rx="92.398" ry="151.551"/>
<path style="opacity:0.7529;fill:#BECFD1;" d="M92.4,66.506c0,36.725,52.024,66.506,116.199,66.506
	c64.175,0,116.199-29.781,116.199-66.506C324.798,29.78,272.774,0,208.599,0C144.424,0,92.4,29.78,92.4,66.506z"/>
<path style="opacity:0.7529;fill:#767C7D;" d="M137.879,119.165c0,65.809,60.004,119.164,134.019,119.164
	c74.015,0,134.021-53.355,134.021-119.164C405.919,53.355,345.914,0,271.898,0C197.884,0,137.879,53.355,137.879,119.165z"/>
<ellipse style="opacity:0.7529;fill:#767C7D;" cx="230.089" cy="149.572" rx="121.327" ry="149.572"/>
<ellipse style="opacity:0.7529;fill:#5B5F61;" cx="57.179" cy="123.926" rx="53.412" ry="123.926"/>
<path style="opacity:0.7529;fill:#5B5F61;" d="M46.627,118.939c0,65.689,42.692,118.94,95.357,118.94s95.364-53.251,95.357-118.94
	C237.341,53.25,194.649,0,141.984,0S46.621,53.25,46.627,118.939z"/>
<ellipse style="opacity:0.7529;fill:#5B5F61;" cx="134.816" cy="114.558" rx="92.385" ry="114.558"/>
<ellipse style="opacity:0.7529;fill:#CEDBE0;" cx="147.321" cy="92.124" rx="98.893" ry="92.124"/>
<path style="opacity:0.7529;fill:#767C7D;" d="M126.192,157.271c0,86.863,58.364,157.271,130.357,157.271
	c71.993,0,130.357-70.408,130.357-157.271C386.906,70.409,328.542,0,256.549,0C184.556,0,126.192,70.409,126.192,157.271z"/>
<ellipse style="opacity:0.7529;fill:#BECFD1;" cx="15.778" cy="91.42" rx="14.961" ry="91.419"/>
<path style="opacity:0.7529;fill:#CEDBE0;" d="M11.748,158.44c0,87.504,27.231,158.441,60.83,158.441
	c33.598,0,60.829-70.937,60.829-158.441C133.407,70.937,106.176,0,72.578,0C38.979,0,11.748,70.937,11.748,158.44z"/>
<path style="opacity:0.7529;fill:#BECFD1;" d="M39.354,78.636c0,43.431,36.944,78.635,82.517,78.635s82.516-35.204,82.516-78.635
	C204.386,35.204,167.443,0,121.87,0S39.354,35.204,39.354,78.636z"/>
<ellipse style="opacity:0.7529;fill:#5B5F61;" cx="291.042" cy="87.193" rx="142.76" ry="87.194"/>
<path style="opacity:0.7529;fill:#CEDBE0;" d="M19.435,139.035c0,76.79,29.485,139.034,65.858,139.034s65.858-62.244,65.858-139.034
	S121.667,0,85.293,0S19.435,62.245,19.435,139.035z"/>
<path style="opacity:0.7529;fill:#BECFD1;" d="M7.481,115.882c0,63.999,15.701,115.881,35.078,115.881s35.077-51.882,35.077-115.881
	C77.637,51.884,61.937,0,42.56,0S7.481,51.884,7.481,115.882z"/>
<ellipse style="opacity:0.7529;fill:#5B5F61;" cx="191.842" cy="42.1" rx="108.874" ry="42.1"/>
<path style="opacity:0.7529;fill:#CEDBE0;" d="M127.643,115.115c0,63.576,57.75,115.114,128.998,115.114
	c71.246,0,128.997-51.539,128.997-115.114C385.638,51.539,327.887,0,256.641,0C185.394,0,127.643,51.539,127.643,115.115z"/>
<ellipse style="opacity:0.7529;fill:#767C7D;" cx="270.863" cy="95.893" rx="133.787" ry="95.892"/>
<ellipse style="opacity:0.7529;fill:#99AAAA;" cx="263.752" cy="141.704" rx="132.027" ry="141.704"/>
<ellipse style="opacity:0.7529;fill:#5B5F61;" cx="63.96" cy="90.962" rx="55.504" ry="90.961"/>
<ellipse style="opacity:0.7529;fill:#BECFD1;" cx="51.239" cy="44.417" rx="44.143" ry="44.417"/>
<ellipse style="opacity:0.7529;fill:#99AAAA;" cx="292.669" cy="17.792" rx="143.67" ry="17.792"/>
<ellipse style="opacity:0.7529;fill:#BECFD1;" cx="136.689" cy="14.806" rx="93.047" ry="14.806"/>
<path style="opacity:0.7529;fill:#5B5F61;" d="M6.796,70.599c0,38.994,11.89,70.599,26.548,70.599
	c14.658,0,26.548-31.604,26.548-70.599C59.892,31.605,48.002,0,33.344,0C18.687,0,6.796,31.605,6.796,70.599z"/>
<path style="opacity:0.7529;fill:#CEDBE0;" d="M151.027,137.365c0,75.861,64.436,137.365,143.923,137.365
	c79.488,0,143.923-61.504,143.923-137.365C438.873,61.505,374.438,0,294.95,0C215.463,0,151.027,61.505,151.027,137.365z"/>
<path style="opacity:0.7529;fill:#CEDBE0;" d="M97.258,145.282c0,80.242,52.918,145.283,118.207,145.283
	c65.287,0,118.206-65.048,118.206-145.283C333.671,65.041,280.752,0,215.465,0C150.176,0,97.258,65.047,97.258,145.282z"/>
<ellipse style="opacity:0.7529;fill:#99AAAA;" cx="126.107" cy="93.441" rx="88.419" ry="93.441"/>
<ellipse style="opacity:0.7529;fill:#99AAAA;" cx="66.276" cy="79.607" rx="58.258" ry="79.607"/>
<path style="opacity:0.7529;fill:#767C7D;" d="M91.231,76.769c0,42.403,52.003,76.769,116.15,76.769
	c64.147,0,116.15-34.373,116.15-76.769C323.531,34.366,271.528,0,207.381,0C143.234,0,91.231,34.373,91.231,76.769z"/>
<ellipse style="opacity:0.7529;fill:#CEDBE0;" cx="328" cy="68.493" rx="157.771" ry="68.493"/>
<ellipse style="opacity:0.7529;fill:#5B5F61;" cx="46.453" cy="145.86" rx="37.521" ry="145.859"/>
<path style="opacity:0.7529;fill:#5B5F61;" d="M7.982,148.67c0,82.108,20.419,148.671,45.601,148.671
	c25.188,0,45.601-66.563,45.601-148.671C99.184,66.562,78.764,0,53.583,0C28.395,0,7.982,66.562,7.982,148.67z"/>
<ellipse style="opacity:0.7529;fill:#99AAAA;" cx="250.198" cy="124.25" rx="126.568" ry="124.25"/>
<path style="opacity:0.7529;fill:#767C7D;" d="M84.757,107.028c0,59.11,49.193,107.029,109.881,107.029
	c60.688,0,109.881-47.918,109.881-107.029S255.326,0,194.638,0C133.95,0,84.757,47.918,84.757,107.028z"/>
<path style="opacity:0.7529;fill:#767C7D;" d="M17.83,139.908c0,77.269,29.281,139.908,65.394,139.908
	c36.112,0,65.393-62.639,65.393-139.908S119.336,0,83.224,0C47.111,0,17.83,62.639,17.83,139.908z"/>
<ellipse style="opacity:0.7529;fill:#5B5F61;" cx="231.279" cy="92.962" rx="121.405" ry="92.962"/>
<path style="opacity:0.7529;fill:#BECFD1;" d="M6.891,75.128c0,41.494,26.899,75.128,60.089,75.128
	c33.19,0,60.089-33.634,60.089-75.128C127.069,33.633,100.169,0,66.979,0C33.79,0,6.891,33.633,6.891,75.128z"/>
<ellipse style="opacity:0.7529;fill:#BECFD1;" cx="177.19" cy="67.443" rx="105.781" ry="67.443"/>
<path style="opacity:0.7529;fill:#BECFD1;" d="M85.007,82.425c0,45.523,51.123,82.425,114.192,82.425
	c63.068,0,114.192-36.901,114.192-82.425C313.391,36.902,262.268,0,199.199,0C136.13,0,85.007,36.902,85.007,82.425z"/>
<path style="opacity:0.7529;fill:#5B5F61;" d="M40.24,119.644c0,66.076,37.318,119.644,83.341,119.644
	c46.031,0,83.341-53.568,83.341-119.644C206.921,53.567,169.604,0,123.581,0C77.551,0,40.24,53.567,40.24,119.644z"/>
<path style="opacity:0.7529;fill:#5B5F61;" d="M157.875,70.993c0.007,39.212,66.879,70.993,149.375,70.993
	s149.375-31.781,149.369-70.993C456.619,31.781,389.746,0,307.25,0S157.875,31.781,157.875,70.993z"/>
<ellipse style="opacity:0.7529;fill:#5B5F61;" cx="44.256" cy="23.878" rx="35.916" ry="23.878"/>
<path style="opacity:0.7529;fill:#767C7D;" d="M155.039,133.294c0,73.613,66.091,133.294,147.621,133.294
	c81.531,0,147.622-59.681,147.622-133.294S384.19,0,302.66,0C221.129,0,155.039,59.681,155.039,133.294z"/>
<ellipse style="opacity:0.7529;fill:#99AAAA;" cx="262.562" cy="42.177" rx="131.949" ry="42.177"/>
<path style="opacity:0.7529;fill:#767C7D;" d="M8.291,120.862c0,66.752,10.981,120.862,24.533,120.862
	c13.552,0,24.533-54.11,24.533-120.862C57.356,54.109,46.375,0,32.823,0C19.271,0,8.291,54.109,8.291,120.862z"/>
<path style="opacity:0.7529;fill:#99AAAA;" d="M85.911,60.625c0,33.486,49.221,60.625,109.938,60.625
	c60.716,0,109.938-27.139,109.938-60.625C305.786,27.139,256.565,0,195.849,0C135.132,0,85.911,27.139,85.911,60.625z"/>
<path style="opacity:0.7529;fill:#5B5F61;" d="M3.31,80.241c0,44.319,7.276,80.241,16.25,80.241s16.257-35.922,16.25-80.241
	C35.81,35.923,28.533,0,19.56,0S3.302,35.923,3.31,80.241z"/>
<path style="opacity:0.7529;fill:#5B5F61;" d="M3.435,126.019c0,69.598,8.953,126.018,19.99,126.018
	c11.037,0,19.99-56.42,19.99-126.018C43.415,56.42,34.462,0,23.425,0C12.387,0,3.435,56.42,3.435,126.019z"/>
<path style="opacity:0.7529;fill:#5B5F61;" d="M14.211,96.322c0,53.201,28.667,96.322,64.034,96.322s64.034-43.121,64.034-96.322
	C142.279,43.122,113.611,0,78.245,0S14.211,43.122,14.211,96.322z"/>
<ellipse style="opacity:0.7529;fill:#99AAAA;" cx="65.115" cy="78.495" rx="56.885" ry="78.495"/>
<ellipse style="opacity:0.7529;fill:#5B5F61;" cx="324.888" cy="46.396" rx="155.812" ry="46.397"/>
<path style="opacity:0.7529;fill:#5B5F61;" d="M39.029,53.546c0,29.576,36.733,53.545,82.045,53.545s82.045-23.969,82.045-53.545
	C203.119,23.969,166.386,0,121.074,0S39.029,23.969,39.029,53.546z"/>
<path style="opacity:0.7529;fill:#767C7D;" d="M61.608,113.142c0,62.484,45.58,113.143,101.809,113.143
	s101.809-50.659,101.809-113.143S219.647,0,163.417,0S61.608,50.658,61.608,113.142z"/>
<path style="opacity:0.7529;fill:#5B5F61;" d="M0.001,33.288c0,18.384,6.593,33.288,14.735,33.288
	c8.143,0,14.735-14.904,14.735-33.288S22.879,0,14.736,0C6.594,0,0.001,14.904,0.001,33.288z"/>
<path style="opacity:0.7529;fill:#99AAAA;" d="M6.08,150.664c0,83.207,21.694,150.664,48.453,150.664
	c26.759,0,48.454-67.458,48.454-150.664C102.986,67.457,81.292,0,54.533,0C27.774,0,6.08,67.457,6.08,150.664z"/>
<ellipse style="opacity:0.7529;fill:#767C7D;" cx="255.627" cy="79.636" rx="128.744" ry="79.636"/>
<path style="opacity:0.7529;fill:#5B5F61;" d="M6.285,112.312c0,62.026,26.751,112.311,59.758,112.311
	c33.006,0,59.758-50.285,59.758-112.311C125.801,50.285,99.05,0,66.043,0C33.037,0,6.285,50.285,6.285,112.312z"/>
<path style="opacity:0.7529;fill:#CEDBE0;" d="M5.997,69.634c0,38.458,9.79,69.634,21.877,69.634
	c12.087,0,21.877-31.176,21.877-69.634C49.751,31.175,39.961,0,27.875,0C15.787,0,5.997,31.175,5.997,69.634z"/>
<path style="opacity:0.7529;fill:#767C7D;" d="M9.114,102.464c0,56.588,17.046,102.464,38.064,102.464s38.064-45.875,38.064-102.464
	C85.242,45.875,68.196,0,47.178,0S9.114,45.875,9.114,102.464z"/>
<path style="opacity:0.7529;fill:#5B5F61;" d="M83.475,102.809c0,56.779,48.912,102.81,109.254,102.81
	c60.343,0,109.254-46.03,109.254-102.81C301.983,46.03,253.073,0,192.729,0C132.387,0,83.475,46.03,83.475,102.809z"/>
<path style="opacity:0.7529;fill:#BECFD1;" d="M84.812,32.936c0,18.194,50.031,32.937,111.755,32.937
	c61.724,0,111.755-14.742,111.755-32.937C308.321,14.742,258.29,0,196.566,0C134.842,0,84.812,14.742,84.812,32.936z"/>
<ellipse style="opacity:0.7529;fill:#767C7D;" cx="31.395" cy="69.154" rx="23.427" ry="69.155"/>
<path style="opacity:0.7529;fill:#5B5F61;" d="M118.014,18.243c0,10.072,55.088,18.243,123.038,18.243
	c67.95,0,123.039-8.171,123.039-18.243S309.002,0,241.052,0C173.103,0,118.014,8.171,118.014,18.243z"/>
<path style="opacity:0.7529;fill:#767C7D;" d="M17.197,27.442c0,15.158,29.132,27.442,65.075,27.442
	c35.944,0,65.077-12.285,65.077-27.442S118.216,0,82.272,0C46.329,0,17.197,12.284,17.197,27.442z"/>
<ellipse style="opacity:0.7529;fill:#5B5F61;" cx="37.871" cy="95.414" rx="30.894" ry="95.413"/>
<path style="opacity:0.7529;fill:#767C7D;" d="M56.482,44.305c0,24.469,45.023,44.305,100.569,44.305
	c55.547,0,100.57-19.835,100.57-44.305C257.622,19.835,212.599,0,157.052,0C101.505,0,56.482,19.835,56.482,44.305z"/>
<ellipse style="opacity:0.7529;fill:#99AAAA;" cx="307.188" cy="120.623" rx="148.164" ry="120.623"/>
<ellipse style="opacity:0.7529;fill:#99AAAA;" cx="96.41" cy="81.276" rx="73.754" ry="81.277"/>
<path style="opacity:0.7529;fill:#767C7D;" d="M62.312,68.331c0,37.74,45.707,68.33,102.091,68.33
	c56.385,0,102.091-30.597,102.091-68.33C266.494,30.59,220.788,0,164.403,0C108.019,0,62.312,30.598,62.312,68.331z"/>
<path style="opacity:0.7529;fill:#5B5F61;" d="M64.86,52.398c0,28.936,46.271,52.397,103.352,52.397
	c57.083,0,103.352-23.461,103.352-52.397S225.294,0,168.212,0C111.13,0,64.86,23.462,64.86,52.398z"/>
<path style="opacity:0.7529;fill:#5B5F61;" d="M7.342,40.078c0,22.131,15.172,40.079,33.88,40.079
	c18.708,0,33.88-17.948,33.88-40.079S59.93,0,41.222,0C22.514,0,7.342,17.947,7.342,40.078z"/>
<path style="opacity:0.7529;fill:#99AAAA;" d="M46.134,54.257c0,29.963,42.522,54.257,94.97,54.257
	c52.447,0,94.97-24.294,94.97-54.257C236.074,24.293,193.551,0,141.104,0C88.657,0,46.134,24.293,46.134,54.257z"/>
<ellipse style="opacity:0.7529;fill:#5B5F61;" cx="115.893" cy="48.425" rx="79.622" ry="48.425"/>
<path style="opacity:0.7529;fill:#767C7D;" d="M20.318,71.69c0,39.592,32.696,71.69,73.021,71.69
	c40.325,0,73.021-32.098,73.021-71.69C166.361,32.098,133.665,0,93.34,0C53.015,0,20.318,32.098,20.318,71.69z"/>
<path style="opacity:0.7529;fill:#CEDBE0;" d="M68.324,107.895c0,59.589,46.629,107.894,104.155,107.894
	c57.526,0,104.154-48.305,104.154-107.894S230.005,0,172.479,0C114.954,0,68.324,48.306,68.324,107.895z"/>
<path style="opacity:0.7529;fill:#BECFD1;" d="M4.387,53.503c0,29.548,24.054,53.504,53.736,53.504s53.736-23.956,53.736-53.504
	S87.805,0,58.123,0S4.387,23.955,4.387,53.503z"/>
<ellipse style="opacity:0.7529;fill:#767C7D;" cx="62.847" cy="19.567" rx="55.349" ry="19.567"/>
<path style="opacity:0.7529;fill:#5B5F61;" d="M6.355,44.136c0,24.378,15.102,44.136,33.739,44.136
	c18.638,0,33.74-19.757,33.74-44.136C73.834,19.758,58.732,0,40.095,0C21.458,0,6.355,19.758,6.355,44.136z"/>
<path style="opacity:0.7529;fill:#CEDBE0;" d="M124.982,72c0,39.762,57.215,72,127.793,72s127.793-32.238,127.793-72
	c0-39.762-57.216-72-127.793-72S124.982,32.239,124.982,72z"/>
<ellipse style="opacity:0.7529;fill:#CEDBE0;" cx="34.259" cy="130.139" rx="29.435" ry="130.138"/>
<path style="opacity:0.7529;fill:#5B5F61;" d="M100.088,27.005c0,14.918,53.137,27.005,118.692,27.005
	s118.693-12.087,118.693-27.005C337.474,12.087,284.336,0,218.781,0S100.088,12.087,100.088,27.005z"/>
<path style="opacity:0.7529;fill:#99AAAA;" d="M91.836,87.355c0,48.249,52.722,87.355,117.749,87.355
	c65.026,0,117.749-39.106,117.749-87.355S274.611,0,209.585,0C144.558,0,91.836,39.106,91.836,87.355z"/>
<path style="opacity:0.7529;fill:#5B5F61;" d="M6.273,51.087c0,28.217,13.418,51.088,29.978,51.088s29.979-22.871,29.979-51.088
	C66.229,22.871,52.811,0,36.251,0S6.273,22.871,6.273,51.087z"/>
<path style="opacity:0.7529;fill:#CEDBE0;" d="M132.302,82.129c0,45.362,59.547,82.129,133.006,82.129
	c73.458,0,133.005-36.767,133.005-82.129C398.313,36.768,338.766,0,265.308,0C191.849,0,132.302,36.768,132.302,82.129z"/>
<path style="opacity:0.7529;fill:#5B5F61;" d="M33.962,101.189c0,55.884,34.465,101.189,76.974,101.189
	c42.509,0,76.973-45.305,76.973-101.189S153.445,0,110.936,0C68.428,0,33.962,45.305,33.962,101.189z"/>
<ellipse style="opacity:0.7529;fill:#5B5F61;" cx="76.366" cy="99.125" rx="62.111" ry="99.125"/>
<ellipse style="opacity:0.7529;fill:#BECFD1;" cx="53.161" cy="79.516" rx="47.291" ry="79.516"/>
<path style="opacity:0.7529;fill:#BECFD1;" d="M16.239,122.123c0,67.443,28.78,122.123,64.287,122.123s64.288-54.68,64.288-122.123
	C144.814,54.68,116.034,0,80.526,0S16.239,54.68,16.239,122.123z"/>
<path style="opacity:0.7529;fill:#99AAAA;" d="M158.74,132.978c0,73.444,68.099,132.977,152.107,132.977
	c84.01,0,152.109-59.533,152.109-132.977C462.956,59.533,394.857,0,310.847,0C226.838,0,158.74,59.533,158.74,132.978z"/>
<ellipse style="opacity:0.7529;fill:#CEDBE0;" cx="226.568" cy="28.436" rx="121.045" ry="28.436"/>
<path style="opacity:0.7529;fill:#767C7D;" d="M5.856,17.13c0,9.459,9.263,17.131,20.681,17.131c11.417,0,20.68-7.671,20.68-17.131
	S37.954,0,26.537,0C15.119,0,5.856,7.67,5.856,17.13z"/>
<ellipse style="opacity:0.7529;fill:#BECFD1;" cx="30.536" cy="51.109" rx="23.019" ry="51.108"/>
<ellipse style="opacity:0.7529;fill:#767C7D;" cx="35.364" cy="64.619" rx="29.597" ry="64.618"/>
<ellipse style="opacity:0.7529;fill:#5B5F61;" cx="141.568" cy="141.43" rx="97.04" ry="141.43"/>
<path style="opacity:0.7529;fill:#CEDBE0;" d="M150.857,49.925c0,27.577,65.041,49.926,145.276,49.926
	c80.234,0,145.275-22.349,145.275-49.926C441.408,22.35,376.367,0,296.133,0C215.898,0,150.857,22.35,150.857,49.925z"/>
<ellipse style="opacity:0.7529;fill:#99AAAA;" cx="50.063" cy="70.289" rx="44.051" ry="70.289"/>
<path style="opacity:0.7529;fill:#BECFD1;" d="M64.776,27.02c0,14.918,46.009,27.02,102.76,27.02
	c56.75,0,102.761-12.102,102.761-27.02c0-14.919-46.01-27.02-102.761-27.02C110.785,0,64.776,12.101,64.776,27.02z"/>
<ellipse style="opacity:0.7529;fill:#CEDBE0;" cx="74.281" cy="20.983" rx="61.66" ry="20.983"/>
<path style="opacity:0.7529;fill:#99AAAA;" d="M19.572,74.367c0,41.071,32.289,74.374,72.127,74.367
	c39.839,0,72.127-33.295,72.127-74.367c0-41.072-32.288-74.374-72.127-74.367C51.86,0,19.572,33.295,19.572,74.367z"/>
<path style="opacity:0.7529;fill:#5B5F61;" d="M4.909,103.098c0,56.941,23.371,103.098,52.208,103.098
	c28.836,0,52.208-46.157,52.208-103.098S85.953,0,57.117,0C28.279,0,4.909,46.157,4.909,103.098z"/>
<ellipse style="opacity:0.7529;fill:#767C7D;" cx="283.263" cy="117.08" rx="137.866" ry="117.079"/>
<ellipse style="opacity:0.7529;fill:#99AAAA;" cx="252.304" cy="92.124" rx="126.997" ry="92.124"/>
<path style="opacity:0.7529;fill:#BECFD1;" d="M6.879,136.069c0,75.149,24.639,136.069,55.025,136.069
	c30.393,0,55.025-60.92,55.025-136.069C116.929,60.921,92.29,0,61.904,0C31.51,0,6.879,60.921,6.879,136.069z"/>
<ellipse style="opacity:0.7529;fill:#BECFD1;" cx="52.668" cy="53.694" rx="45.249" ry="53.694"/>
<path style="opacity:0.7529;fill:#767C7D;" d="M147.942,29.259c0,16.159,64.281,29.259,143.565,29.259
	s143.564-13.101,143.564-29.259C435.071,13.101,370.791,0,291.507,0S147.942,13.101,147.942,29.259z"/>
<path style="opacity:0.7529;fill:#5B5F61;" d="M85.685,24.977c0,13.799,50.123,24.977,111.952,24.977s111.952-11.185,111.952-24.977
	C309.588,11.178,259.466,0,197.637,0S85.685,11.185,85.685,24.977z"/>
<ellipse style="opacity:0.7529;fill:#99AAAA;" cx="122.326" cy="130.674" rx="87.13" ry="130.673"/>
<ellipse style="opacity:0.7529;fill:#5B5F61;" cx="169.479" cy="32.091" rx="103.352" ry="32.091"/>
<path style="opacity:0.7529;fill:#CEDBE0;" d="M80.715,140.873c0,77.805,48.686,140.874,108.733,140.874
	c60.054,0,108.733-63.076,108.733-140.874C298.181,63.069,249.496,0,189.448,0C129.394,0,80.715,63.075,80.715,140.873z"/>
<path style="opacity:0.7529;fill:#5B5F61;" d="M40.688,47.911c0,26.463,39.768,47.91,88.82,47.91
	c49.053,0,88.821-21.447,88.821-47.91S178.561,0,129.508,0C80.456,0,40.688,21.448,40.688,47.911z"/>
<ellipse style="opacity:0.7529;fill:#CEDBE0;" cx="303.927" cy="79.727" rx="147.621" ry="79.728"/>
<ellipse style="opacity:0.7529;fill:#99AAAA;" cx="53.512" cy="142.268" rx="48.207" ry="142.269"/>
<path style="opacity:0.7529;fill:#99AAAA;" d="M129.711,138.845c0,76.685,58.991,138.845,131.766,138.845
	c72.775,0,131.766-62.16,131.766-138.845S334.252,0,261.478,0C188.702,0,129.711,62.16,129.711,138.845z"/>
<path style="opacity:0.7529;fill:#767C7D;" d="M8.468,111.881c0,61.794,15.2,111.881,33.951,111.881s33.951-50.087,33.951-111.881
	S61.169,0,42.418,0S8.468,50.087,8.468,111.881z"/>
<path style="opacity:0.7529;fill:#99AAAA;" d="M9.59,92.321c0,50.989,18.356,92.321,40.994,92.321
	c22.639,0,40.995-41.333,40.995-92.321C91.579,41.332,73.224,0,50.584,0C27.947,0,9.59,41.332,9.59,92.321z"/>
<path style="opacity:0.7529;fill:#5B5F61;" d="M43.912,46.608c0,25.737,40.177,46.608,89.744,46.608
	c49.566-0.007,89.743-20.871,89.743-46.608C223.398,20.87,183.222,0,133.655,0C84.089,0.007,43.912,20.87,43.912,46.608z"/>
<path style="opacity:0.7529;fill:#767C7D;" d="M84.094,79.833c0,44.093,49.911,79.833,111.479,79.833s111.48-35.74,111.48-79.833
	C307.054,35.739,257.142,0,195.573,0S84.094,35.739,84.094,79.833z"/>
<path style="opacity:0.7529;fill:#767C7D;" d="M4.934,91.476c0,50.517,14.574,91.476,32.549,91.476s32.549-40.959,32.549-91.476
	S55.458,0,37.483,0S4.934,40.959,4.934,91.476z"/>
<path style="opacity:0.7529;fill:#BECFD1;" d="M8.55,75.156c0,41.508,17.455,75.156,38.979,75.156
	c21.525,0,38.979-33.648,38.979-75.156C86.509,33.647,69.055,0,47.53,0C26.005,0,8.55,33.647,8.55,75.156z"/>
<ellipse style="opacity:0.7529;fill:#CEDBE0;" cx="59.039" cy="147.459" rx="54.088" ry="147.458"/>
<ellipse style="opacity:0.7529;fill:#767C7D;" cx="54.764" cy="106.12" rx="52.024" ry="106.12"/>
<path style="opacity:0.7529;fill:#5B5F61;" d="M10.763,91.229c0,50.384,27.174,91.229,60.688,91.229
	c33.514,0,60.688-40.845,60.688-91.229C132.139,40.846,104.965,0,71.451,0C37.937,0,10.763,40.846,10.763,91.229z"/>
<ellipse style="opacity:0.7529;fill:#99AAAA;" cx="77.542" cy="58.582" rx="62.203" ry="58.582"/>
<path style="opacity:0.7529;fill:#99AAAA;" d="M127.22,147.24c0,81.32,58.42,147.241,130.477,147.241
	c72.057,0,130.478-65.921,130.478-147.241C388.174,65.921,329.753,0,257.696,0C185.64,0,127.22,65.921,127.22,147.24z"/>
<path style="opacity:0.7529;fill:#BECFD1;" d="M169.243,86.771c0,47.918,70.578,86.771,157.63,86.771s157.63-38.853,157.63-86.771
	C484.503,38.853,413.926,0,326.873,0S169.243,38.853,169.243,86.771z"/>
<ellipse style="opacity:0.7529;fill:#5B5F61;" cx="29.754" cy="138.45" rx="22.533" ry="138.45"/>
<path style="opacity:0.7529;fill:#BECFD1;" d="M118.575,56.504c0,31.21,56.384,56.504,125.927,56.504
	c69.549,0,125.926-25.293,125.926-56.504S314.044,0,244.502,0C174.953,0,118.575,25.294,118.575,56.504z"/>
<path style="opacity:0.7529;fill:#BECFD1;" d="M164.02,46.023c0,25.42,68.908,46.023,153.904,46.023
	c84.996,0,153.904-20.603,153.904-46.023C471.828,20.603,402.92,0,317.924,0C232.928,0,164.02,20.603,164.02,46.023z"/>
<path style="opacity:0.7529;fill:#767C7D;" d="M17.729,74.501c0,41.148,31.006,74.5,69.246,74.5s69.247-33.358,69.247-74.5
	C156.222,33.352,125.215,0,86.975,0S17.729,33.358,17.729,74.501z"/>
<path style="opacity:0.7529;fill:#CEDBE0;" d="M15.253,46.178c0,25.506,28.725,46.179,64.147,46.179
	c35.43,0,64.146-20.673,64.146-46.179C143.546,20.673,114.823,0,79.4,0C43.971,0,15.253,20.673,15.253,46.178z"/>
<path style="opacity:0.7529;fill:#99AAAA;" d="M17.617,24.329c0,13.439,30.457,24.329,68.035,24.329s68.034-10.89,68.034-24.329
	C153.686,10.89,123.23,0,85.652,0S17.617,10.89,17.617,24.329z"/>
<path style="opacity:0.7529;fill:#BECFD1;" d="M14.804,149.53c0,82.587,28.251,149.53,63.104,149.53
	c34.852,0,63.104-66.943,63.104-149.53S112.759,0,77.908,0C43.055,0,14.804,66.943,14.804,149.53z"/>
<path style="opacity:0.7529;fill:#BECFD1;" d="M144.805,144.62c0,79.875,62.139,144.621,138.795,144.621
	s138.795-64.746,138.795-144.621C422.396,64.745,360.257,0,283.601,0S144.805,64.745,144.805,144.62z"/>
<path style="opacity:0.7529;fill:#767C7D;" d="M132.74,71.148c0,39.29,59.167,71.148,132.153,71.148
	c72.986,0,132.152-31.858,132.152-71.148S337.879,0,264.893,0C191.906,0,132.74,31.858,132.74,71.148z"/>
<ellipse style="opacity:0.7529;fill:#5B5F61;" cx="217.548" cy="131.787" rx="118.657" ry="131.786"/>
<path style="opacity:0.7529;fill:#5B5F61;" d="M133.387,147.952c0.007,81.713,59.59,147.952,133.097,147.952
	c73.508,0,133.097-66.239,133.097-147.952C399.574,66.239,339.992,0,266.484,0C192.977,0,133.387,66.239,133.387,147.952z"/>
<path style="opacity:0.7529;fill:#BECFD1;" d="M145.128,124.905c0,68.986,62.639,124.905,139.901,124.905
	s139.902-55.919,139.902-124.905C424.932,55.92,362.291,0,285.029,0S145.128,55.92,145.128,124.905z"/>
<ellipse style="opacity:0.7529;fill:#BECFD1;" cx="68.226" cy="76.191" rx="60.11" ry="76.191"/>
<ellipse style="opacity:0.7529;fill:#767C7D;" cx="276.355" cy="67.161" rx="135.901" ry="67.161"/>
<ellipse style="opacity:0.7529;fill:#BECFD1;" cx="193.976" cy="90.271" rx="109.275" ry="90.272"/>
<path style="opacity:0.7529;fill:#5B5F61;" d="M39.691,43.283c0,23.907,37.148,43.284,82.982,43.284
	c45.833,0,82.981-19.377,82.981-43.284C205.654,19.377,168.505,0,122.673,0C76.839,0,39.691,19.377,39.691,43.283z"/>
<ellipse style="opacity:0.7529;fill:#CEDBE0;" cx="124.396" cy="141.155" rx="87.595" ry="141.156"/>
<path style="opacity:0.7529;fill:#99AAAA;" d="M7.99,24.991c0,13.798,25.238,24.991,56.371,24.991
	c31.133,0,56.371-11.193,56.371-24.991S95.494,0,64.361,0C33.228,0,7.99,11.192,7.99,24.991z"/>
<path style="opacity:0.7529;fill:#99AAAA;" d="M6.527,77.276c0,42.677,24.434,77.276,54.567,77.276
	c30.14,0,54.567-34.599,54.567-77.276S91.227,0,61.094,0C30.955,0,6.527,34.599,6.527,77.276z"/>
<path style="opacity:0.7529;fill:#767C7D;" d="M32.33,35.986c0,19.877,34.26,35.986,76.522,35.986
	c42.262,0,76.522-16.109,76.522-35.986C185.374,16.108,151.114,0,108.852,0C66.59,0,32.33,16.108,32.33,35.986z"/>
<path style="opacity:0.7529;fill:#767C7D;" d="M7.106,18.617c0,10.283,12.101,18.616,27.026,18.616S61.159,28.9,61.159,18.617
	C61.159,8.332,49.058,0,34.132,0S7.106,8.332,7.106,18.617z"/>
<path style="opacity:0.7529;fill:#5B5F61;" d="M18.125,47.207c0,26.068,30.062,47.207,67.147,47.207
	c37.084,0,67.147-21.138,67.147-47.207S122.356,0,85.272,0C48.187,0,18.125,21.138,18.125,47.207z"/>
<path style="opacity:0.7529;fill:#CEDBE0;" d="M5.392,46.833c0,25.864,9.643,46.833,21.546,46.833
	c11.903,0,21.546-20.969,21.546-46.833C48.484,20.969,38.841,0,26.938,0C15.034,0,5.392,20.969,5.392,46.833z"/>
<path style="opacity:0.7529;fill:#99AAAA;" d="M3.459,79.41c0,43.854,22.561,79.411,50.397,79.411
	c27.837,0,50.397-35.557,50.397-79.411C104.254,35.557,81.694,0,53.857,0C26.021,0,3.459,35.557,3.459,79.41z"/>
<ellipse style="opacity:0.7529;fill:#99AAAA;" cx="88.981" cy="87.341" rx="71.043" ry="87.341"/>
<ellipse style="opacity:0.7529;fill:#CEDBE0;" cx="16.997" cy="143.324" rx="15.01" ry="143.325"/>
<ellipse style="opacity:0.7529;fill:#CEDBE0;" cx="214.408" cy="30.95" rx="117.995" ry="30.951"/>
<ellipse style="opacity:0.7529;fill:#BECFD1;" cx="69.036" cy="65.978" rx="60.569" ry="65.978"/>
<path style="opacity:0.7529;fill:#99AAAA;" d="M91.936,43.234c0,23.878,51.56,43.241,115.164,43.234
	c63.604,0,115.164-19.355,115.164-43.234c0-23.878-51.56-43.241-115.164-43.234C143.496,0,91.936,19.356,91.936,43.234z"/>
<ellipse style="opacity:0.7529;fill:#99AAAA;" cx="317.009" cy="100.815" rx="153.552" ry="100.816"/>
<path style="opacity:0.7529;fill:#767C7D;" d="M17.827,140.042c0,77.346,31.549,140.042,70.465,140.042
	c38.917,0,70.465-62.696,70.465-140.042C158.756,62.695,127.208,0,88.292,0C49.375,0,17.827,62.695,17.827,140.042z"/>
<path style="opacity:0.7529;fill:#BECFD1;" d="M18.956,71.888c0,39.698,29.309,71.887,65.464,71.887s65.463-32.189,65.463-71.887
	S120.576,0,84.42,0S18.956,32.189,18.956,71.888z"/>
<ellipse style="opacity:0.7529;fill:#BECFD1;" cx="143.258" cy="120.573" rx="97.886" ry="120.573"/>
<path style="opacity:0.7529;fill:#CEDBE0;" d="M2.521,30.95c0,17.095,8.016,30.951,17.912,30.951
	c9.896,0,17.912-13.856,17.912-30.951S30.329,0,20.433,0C10.536,0,2.521,13.855,2.521,30.95z"/>
<ellipse style="opacity:0.7529;fill:#5B5F61;" cx="53.716" cy="116.643" rx="51.806" ry="116.643"/>
<path style="opacity:0.7529;fill:#5B5F61;" d="M160.147,144.078c0,79.572,68.641,144.078,153.305,144.078
	c84.666,0,153.306-64.506,153.306-144.078C466.759,64.506,398.118,0,313.453,0C228.788,0,160.147,64.506,160.147,144.078z"/>
<path style="opacity:0.7529;fill:#767C7D;" d="M4.561,63.802c0,35.232,8.981,63.801,20.061,63.801
	c11.079,0,20.06-28.569,20.06-63.801C44.682,28.569,35.701,0,24.622,0C13.542,0,4.561,28.569,4.561,63.802z"/>
<path style="opacity:0.7529;fill:#99AAAA;" d="M85.529,133.287c0,73.613,50.722,133.288,113.297,133.288
	S312.124,206.9,312.124,133.287S261.402,0,198.826,0S85.529,59.674,85.529,133.287z"/>
<path style="opacity:0.7529;fill:#5B5F61;" d="M51.131,51.609c0,28.505,44.523,51.609,99.442,51.609
	c54.92,0,99.443-23.104,99.443-51.609C250.017,23.103,205.494,0,150.574,0C95.654,0,51.131,23.103,51.131,51.609z"/>
<ellipse style="opacity:0.7529;fill:#767C7D;" cx="209.24" cy="79.368" rx="116.826" ry="79.368"/>
<ellipse style="opacity:0.7529;fill:#5B5F61;" cx="186.125" cy="111.227" rx="108.254" ry="111.227"/>
<path style="opacity:0.7529;fill:#5B5F61;" d="M6.797,95.597c0,52.799,11.601,95.597,25.914,95.597s25.914-42.798,25.914-95.597
	C58.625,42.797,47.023,0,32.71,0S6.797,42.797,6.797,95.597z"/>
<ellipse style="opacity:0.7529;fill:#BECFD1;" cx="330.386" cy="123.877" rx="157.919" ry="123.877"/>
<path style="opacity:0.7529;fill:#99AAAA;" d="M125.658,82.333c0,45.474,57.35,82.333,128.089,82.333s128.089-36.859,128.089-82.333
	C381.836,36.859,324.486,0,253.747,0S125.658,36.859,125.658,82.333z"/>
<path style="opacity:0.7529;fill:#5B5F61;" d="M145.507,139c0,76.769,63.689,139,142.247,139c78.558,0,142.247-62.23,142.247-139
	S366.312,0,287.754,0C209.196,0,145.507,62.23,145.507,139z"/>
<path style="opacity:0.7529;fill:#5B5F61;" d="M4.895,95.125c0,52.532,12.876,95.125,28.766,95.125
	c15.891,0,28.773-42.593,28.767-95.125C62.427,42.593,49.551,0,33.66,0C17.771,0,4.888,42.593,4.895,95.125z"/>
<path style="opacity:0.7529;fill:#CEDBE0;" d="M3.028,129.97c0,71.782,7.05,129.969,15.757,129.969s15.756-58.187,15.756-129.969
	S27.492,0,18.785,0S3.028,58.188,3.028,129.97z"/>
<ellipse style="opacity:0.7529;fill:#99AAAA;" cx="288.254" cy="65.351" rx="140.479" ry="65.351"/>
<path style="opacity:0.7529;fill:#CEDBE0;" d="M150.238,105.162c0,58.075,64.33,105.161,143.684,105.161
	c79.354,0,143.684-47.086,143.684-105.161S373.275,0,293.922,0C214.568,0,150.238,47.086,150.238,105.162z"/>
<path style="opacity:0.7529;fill:#767C7D;" d="M114.211,34.69c0,19.158,54.8,34.689,122.405,34.689
	c67.605,0,122.404-15.531,122.404-34.689C359.021,15.531,304.222,0,236.616,0C169.011,0,114.211,15.531,114.211,34.69z"/>
<path style="opacity:0.7529;fill:#CEDBE0;" d="M59.341,40.712c0,22.483,45.234,40.712,101.041,40.712
	c55.807,0,101.042-18.229,101.042-40.712C261.424,18.229,216.189,0,160.382,0C104.575,0,59.341,18.229,59.341,40.712z"/>
<path style="opacity:0.7529;fill:#99AAAA;" d="M146.521,100.464c0,55.49,63.745,100.463,142.374,100.463
	s142.374-44.981,142.374-100.463C431.269,44.974,367.523,0,288.895,0S146.521,44.98,146.521,100.464z"/>
<path style="opacity:0.7529;fill:#BECFD1;" d="M3.077,409.682c0,76.037,51.468,137.683,114.959,137.683
	c63.492-0.007,114.96-61.646,114.96-137.683c0-76.036-51.468-137.682-114.96-137.682C54.545,272.007,3.077,333.646,3.077,409.682z"
	/>
<path style="opacity:0.7529;fill:#99AAAA;" d="M105.077,550.182c0,33.789,32.441,61.183,72.459,61.183
	c40.02-0.003,72.46-27.394,72.46-61.183c0-33.788-32.44-61.182-72.46-61.182C137.518,489.003,105.077,516.394,105.077,550.182z"/>
<ellipse style="opacity:0.7529;fill:#99AAAA;" cx="36.536" cy="648.182" rx="19.46" ry="14.183"/>
<path style="opacity:0.7529;fill:#767C7D;" d="M7.308,66.175c0,36.549,19.997,66.175,44.67,66.175
	c24.674,0,44.671-29.633,44.671-66.175C96.649,29.626,76.652,0,51.978,0C27.304,0,7.308,29.633,7.308,66.175z"/>
<path style="opacity:0.7529;fill:#CEDBE0;" d="M25.739,89.039c0,49.172,33.746,89.039,75.381,89.039s75.382-39.867,75.382-89.039
	S142.755,0,101.12,0S25.739,39.867,25.739,89.039z"/>
<ellipse style="opacity:0.7529;fill:#5B5F61;" cx="38.546" cy="60.998" rx="32.753" ry="60.998"/>
<ellipse style="opacity:0.7529;fill:#99AAAA;" cx="198.812" cy="130.11" rx="112.044" ry="130.11"/>
<ellipse style="opacity:0.7529;fill:#99AAAA;" cx="125.326" cy="138.577" rx="87.933" ry="138.577"/>
<path style="opacity:0.7529;fill:#5B5F61;" d="M144.791,86.976c0,48.03,62.428,86.975,139.436,86.975s139.436-38.945,139.436-86.975
	C423.663,38.944,361.235,0,284.227,0S144.791,38.944,144.791,86.976z"/>
<ellipse style="opacity:0.7529;fill:#99AAAA;" cx="213.366" cy="69.338" rx="117.77" ry="69.338"/>
<ellipse style="opacity:0.7529;fill:#CEDBE0;" cx="109.676" cy="79.636" rx="76.966" ry="79.636"/>
<path style="opacity:0.7529;fill:#767C7D;" d="M130.205,35.176c0.008,19.427,58.604,35.177,130.885,35.177
	c72.283,0,130.885-15.75,130.885-35.177C391.969,15.749,333.373,0,261.09,0C188.809,0,130.205,15.749,130.205,35.176z"/>
<path style="opacity:0.7529;fill:#767C7D;" d="M11.635,102.844c0,56.8,27.547,102.844,61.52,102.844
	c33.971,0,61.519-46.044,61.519-102.844C134.674,46.044,107.126,0,73.155,0C39.183,0,11.635,46.044,11.635,102.844z"/>
<path style="opacity:0.7529;fill:#5B5F61;" d="M101.75,88.412c0,48.827,53.617,88.412,119.764,88.412
	c66.146,0,119.763-39.585,119.763-88.412S287.66,0,221.513,0C155.366,0,101.75,39.585,101.75,88.412z"/>
<path style="opacity:0.7529;fill:#CEDBE0;" d="M41.617,64.125c0,35.416,39.838,64.126,88.989,64.126s88.99-28.71,88.99-64.126
	C219.596,28.71,179.757,0,130.606,0S41.617,28.71,41.617,64.125z"/>
<path style="opacity:0.7529;fill:#CEDBE0;" d="M47.484,82.348c0,45.481,44.199,82.348,98.731,82.348
	c54.532,0,98.731-36.867,98.731-82.348S200.748,0,146.215,0C91.684,0,47.484,36.867,47.484,82.348z"/>
<ellipse style="opacity:0.7529;fill:#BECFD1;" cx="151.757" cy="15.609" rx="99.527" ry="15.609"/>
<path style="opacity:0.7529;fill:#5B5F61;" d="M159.726,23.716c0,13.094,68.45,23.716,152.883,23.716S465.49,36.81,465.49,23.716
	C465.49,10.622,397.041,0,312.608,0S159.726,10.622,159.726,23.716z"/>
<ellipse style="opacity:0.7529;fill:#5B5F61;" cx="28.888" cy="28.259" rx="22.131" ry="28.259"/>
<ellipse style="opacity:0.7529;fill:#767C7D;" cx="55.969" cy="138.746" rx="52.088" ry="138.747"/>
<ellipse style="opacity:0.7529;fill:#BECFD1;" cx="81.371" cy="132.752" rx="64.71" ry="132.751"/>
<ellipse style="opacity:0.7529;fill:#767C7D;" cx="173.95" cy="45.763" rx="105.218" ry="45.763"/>
<ellipse style="opacity:0.7529;fill:#BECFD1;" cx="142.371" cy="146.529" rx="97.505" ry="146.529"/>
<ellipse style="opacity:0.7529;fill:#767C7D;" cx="39.778" cy="140.937" rx="32.788" ry="140.937"/>
<path style="opacity:0.7529;fill:#BECFD1;" d="M61.538,71.352c0,39.41,45.312,71.352,101.21,71.352s101.211-31.942,101.211-71.352
	C263.959,31.943,218.647,0,162.748,0S61.538,31.943,61.538,71.352z"/>
<path style="opacity:0.7529;fill:#99AAAA;" d="M98.103,97.66c0,53.94,53.018,97.661,118.418,97.661
	c65.4,0,118.418-43.727,118.418-97.661C334.939,43.72,281.921,0,216.521,0C151.121,0,98.103,43.727,98.103,97.66z"/>
<path style="opacity:0.7529;fill:#5B5F61;" d="M18.94,22.821c0,12.602,31.013,22.822,69.274,22.822
	c38.261,0,69.274-10.221,69.274-22.822C157.489,10.22,126.475,0,88.214,0C49.953,0,18.94,10.22,18.94,22.821z"/>
<path style="opacity:0.7529;fill:#BECFD1;" d="M7.975,126.244c0,69.725,15.876,126.244,35.464,126.244
	c19.589,0,35.465-56.519,35.465-126.244C78.904,56.518,63.028,0,43.439,0C23.851,0,7.975,56.518,7.975,126.244z"/>
<ellipse style="opacity:0.7529;fill:#767C7D;" cx="70.268" cy="91.976" rx="60.604" ry="91.976"/>
<circle style="fill:#CEDBE0;" cx="37.012" cy="30.485" r="30.485"/>
<circle style="fill:#CEDBE0;" cx="21.161" cy="7.043" r="7.044"/>
<circle style="fill:#CEDBE0;" cx="510.414" cy="7.043" r="7.044"/>
<path style="fill:#CEDBE0;" d="M12.85,7.043c0,3.888,3.156,7.044,7.043,7.044c3.888,0,7.044-3.156,7.044-7.044S23.781,0,19.893,0
	C16.005,0,12.85,3.155,12.85,7.043z"/>
<circle style="fill:#CEDBE0;" cx="511.683" cy="7.043" r="7.044"/>
</svg>
